<mxfile host="app.diagrams.net" agent="Mozilla/5.0 (Windows NT 10.0; Win64; x64) AppleWebKit/537.36 (KHTML, like Gecko) Chrome/136.0.0.0 Safari/537.36" version="27.0.9">
  <diagram name="Page-1" id="_PCTIHD2n48BqfA9o45c">
    <mxGraphModel dx="786" dy="1551" grid="1" gridSize="10" guides="1" tooltips="1" connect="1" arrows="1" fold="1" page="1" pageScale="1" pageWidth="850" pageHeight="1100" math="0" shadow="0">
      <root>
        <mxCell id="0" />
        <mxCell id="1" parent="0" />
        <mxCell id="pVx7WA94-ZRG5Flrj3iz-1" value="&lt;font style=&quot;font-size: 14px;&quot;&gt;Book Store&lt;/font&gt;" style="rounded=1;whiteSpace=wrap;html=1;" vertex="1" parent="1">
          <mxGeometry x="70" y="90" width="120" height="60" as="geometry" />
        </mxCell>
        <mxCell id="pVx7WA94-ZRG5Flrj3iz-2" value="&lt;font style=&quot;font-size: 14px;&quot;&gt;Books&lt;/font&gt;" style="rounded=1;whiteSpace=wrap;html=1;" vertex="1" parent="1">
          <mxGeometry x="570" y="90" width="120" height="60" as="geometry" />
        </mxCell>
        <mxCell id="pVx7WA94-ZRG5Flrj3iz-6" style="edgeStyle=orthogonalEdgeStyle;rounded=0;orthogonalLoop=1;jettySize=auto;html=1;entryX=1;entryY=0.5;entryDx=0;entryDy=0;" edge="1" parent="1" source="pVx7WA94-ZRG5Flrj3iz-3" target="pVx7WA94-ZRG5Flrj3iz-1">
          <mxGeometry relative="1" as="geometry">
            <mxPoint x="200" y="120" as="targetPoint" />
          </mxGeometry>
        </mxCell>
        <mxCell id="pVx7WA94-ZRG5Flrj3iz-7" style="edgeStyle=orthogonalEdgeStyle;rounded=0;orthogonalLoop=1;jettySize=auto;html=1;entryX=0;entryY=0.5;entryDx=0;entryDy=0;" edge="1" parent="1" source="pVx7WA94-ZRG5Flrj3iz-3" target="pVx7WA94-ZRG5Flrj3iz-2">
          <mxGeometry relative="1" as="geometry" />
        </mxCell>
        <mxCell id="pVx7WA94-ZRG5Flrj3iz-3" value="Sell" style="ellipse;whiteSpace=wrap;html=1;" vertex="1" parent="1">
          <mxGeometry x="330" y="90" width="110" height="60" as="geometry" />
        </mxCell>
        <mxCell id="pVx7WA94-ZRG5Flrj3iz-8" value="Customer" style="rounded=1;whiteSpace=wrap;html=1;" vertex="1" parent="1">
          <mxGeometry x="560" y="340" width="120" height="60" as="geometry" />
        </mxCell>
        <mxCell id="pVx7WA94-ZRG5Flrj3iz-11" style="edgeStyle=orthogonalEdgeStyle;rounded=0;orthogonalLoop=1;jettySize=auto;html=1;entryX=0.5;entryY=0;entryDx=0;entryDy=0;" edge="1" parent="1" source="pVx7WA94-ZRG5Flrj3iz-9" target="pVx7WA94-ZRG5Flrj3iz-8">
          <mxGeometry relative="1" as="geometry" />
        </mxCell>
        <mxCell id="pVx7WA94-ZRG5Flrj3iz-12" style="edgeStyle=orthogonalEdgeStyle;rounded=0;orthogonalLoop=1;jettySize=auto;html=1;" edge="1" parent="1" source="pVx7WA94-ZRG5Flrj3iz-9">
          <mxGeometry relative="1" as="geometry">
            <mxPoint x="620" y="150" as="targetPoint" />
          </mxGeometry>
        </mxCell>
        <mxCell id="pVx7WA94-ZRG5Flrj3iz-9" value="Purchase" style="ellipse;whiteSpace=wrap;html=1;" vertex="1" parent="1">
          <mxGeometry x="560" y="210" width="120" height="80" as="geometry" />
        </mxCell>
        <mxCell id="pVx7WA94-ZRG5Flrj3iz-10" style="edgeStyle=orthogonalEdgeStyle;rounded=0;orthogonalLoop=1;jettySize=auto;html=1;entryX=0.406;entryY=1;entryDx=0;entryDy=0;entryPerimeter=0;" edge="1" parent="1" target="pVx7WA94-ZRG5Flrj3iz-2">
          <mxGeometry relative="1" as="geometry">
            <mxPoint x="619" y="150" as="sourcePoint" />
          </mxGeometry>
        </mxCell>
        <mxCell id="pVx7WA94-ZRG5Flrj3iz-13" value="1:1" style="text;html=1;align=center;verticalAlign=middle;resizable=0;points=[];autosize=1;strokeColor=none;fillColor=none;" vertex="1" parent="1">
          <mxGeometry x="210" y="88" width="40" height="30" as="geometry" />
        </mxCell>
        <mxCell id="pVx7WA94-ZRG5Flrj3iz-14" value="1:M" style="text;html=1;align=center;verticalAlign=middle;resizable=0;points=[];autosize=1;strokeColor=none;fillColor=none;" vertex="1" parent="1">
          <mxGeometry x="470" y="88" width="40" height="30" as="geometry" />
        </mxCell>
        <mxCell id="pVx7WA94-ZRG5Flrj3iz-15" value="1:M" style="text;html=1;align=center;verticalAlign=middle;resizable=0;points=[];autosize=1;strokeColor=none;fillColor=none;" vertex="1" parent="1">
          <mxGeometry x="360" y="48" width="40" height="30" as="geometry" />
        </mxCell>
        <mxCell id="pVx7WA94-ZRG5Flrj3iz-16" value="1:M" style="text;html=1;align=center;verticalAlign=middle;resizable=0;points=[];autosize=1;strokeColor=none;fillColor=none;" vertex="1" parent="1">
          <mxGeometry x="610" y="168" width="40" height="30" as="geometry" />
        </mxCell>
        <mxCell id="pVx7WA94-ZRG5Flrj3iz-17" value="1:M" style="text;html=1;align=center;verticalAlign=middle;resizable=0;points=[];autosize=1;strokeColor=none;fillColor=none;" vertex="1" parent="1">
          <mxGeometry x="620" y="288" width="40" height="30" as="geometry" />
        </mxCell>
        <mxCell id="pVx7WA94-ZRG5Flrj3iz-18" value="M:N" style="text;html=1;align=center;verticalAlign=middle;resizable=0;points=[];autosize=1;strokeColor=none;fillColor=none;" vertex="1" parent="1">
          <mxGeometry x="685" y="238" width="50" height="30" as="geometry" />
        </mxCell>
        <mxCell id="pVx7WA94-ZRG5Flrj3iz-19" value="&lt;div style=&quot;text-align: center;&quot;&gt;LOGICAL RELATIONAL MODEL&lt;/div&gt;&lt;div&gt;&lt;br&gt;&lt;/div&gt;Book store(&lt;u&gt;store_id&lt;/u&gt;, name, location)&lt;div&gt;Books(&lt;u&gt;book_id&lt;/u&gt;, title, genre, ISBN, #store_id)&lt;/div&gt;&lt;div&gt;Customer(&lt;u&gt;cust_id&lt;/u&gt;, name, address, phone_no, email)&lt;/div&gt;&lt;div style=&quot;&quot;&gt;purchase(purchase_id, #book_id, #cust_id, quantity, data, price, total_amount)&lt;/div&gt;" style="rounded=1;whiteSpace=wrap;html=1;align=left;" vertex="1" parent="1">
          <mxGeometry x="100" y="320" width="380" height="120" as="geometry" />
        </mxCell>
        <mxCell id="pVx7WA94-ZRG5Flrj3iz-20" value="BOOK STORE CONCEPTUAL MODEL" style="rounded=1;whiteSpace=wrap;html=1;" vertex="1" parent="1">
          <mxGeometry x="200" y="-12" width="410" height="60" as="geometry" />
        </mxCell>
      </root>
    </mxGraphModel>
  </diagram>
</mxfile>
